<svg width="96" height="33" viewBox="0 0 96 33" fill="none" xmlns="http://www.w3.org/2000/svg">
<rect x="0.5" y="0.5" width="95" height="32" stroke="black"/>
<path d="M8.42947 3.696C9.50281 3.696 10.3568 3.91533 10.9915 4.354C11.6261 4.78333 11.9435 5.42733 11.9435 6.286C11.9435 6.92067 11.7848 7.45267 11.4675 7.882C11.1595 8.302 10.7348 8.61933 10.1935 8.834C9.66147 9.03933 9.05014 9.142 8.35947 9.142L8.03747 8.05C8.88681 8.05 9.63814 8.16667 10.2915 8.4C10.9541 8.63333 11.4768 8.96933 11.8595 9.408C12.2421 9.83733 12.4335 10.3553 12.4335 10.962C12.4335 11.522 12.3308 11.998 12.1255 12.39C11.9295 12.7727 11.6588 13.0853 11.3135 13.328C10.9775 13.5613 10.5948 13.734 10.1655 13.846C9.73614 13.9487 9.29281 14 8.83547 14H5.40547V3.696H8.42947ZM8.66747 7.91C9.06881 7.91 9.36281 7.78867 9.54947 7.546C9.74547 7.30333 9.84347 7.028 9.84347 6.72C9.84347 6.36533 9.72214 6.09933 9.47947 5.922C9.24614 5.74467 8.92881 5.656 8.52747 5.656H7.43547V7.91H8.66747ZM8.73747 12.11C9.03614 12.11 9.30681 12.0727 9.54947 11.998C9.79214 11.914 9.98347 11.788 10.1235 11.62C10.2635 11.4427 10.3335 11.2233 10.3335 10.962C10.3335 10.6633 10.2495 10.4393 10.0815 10.29C9.91347 10.1313 9.69414 10.024 9.42347 9.968C9.16214 9.90267 8.88681 9.87 8.59747 9.87H7.43547V12.11H8.73747ZM17.4239 14.168C16.8546 14.168 16.3366 14.056 15.8699 13.832C15.4126 13.5987 15.0486 13.244 14.7779 12.768C14.5073 12.292 14.3719 11.6853 14.3719 10.948C14.3719 10.2573 14.5119 9.66 14.7919 9.156C15.0719 8.652 15.4406 8.26467 15.8979 7.994C16.3553 7.714 16.8406 7.574 17.3539 7.574C17.9606 7.574 18.4179 7.67667 18.7259 7.882C19.0433 8.078 19.3046 8.29733 19.5099 8.54L19.4259 8.778L19.6079 7.882H21.4279V14H19.4679V12.67L19.6219 13.09C19.6033 13.09 19.5473 13.146 19.4539 13.258C19.3606 13.3607 19.2206 13.4867 19.0339 13.636C18.8566 13.776 18.6326 13.8973 18.3619 14C18.1006 14.112 17.7879 14.168 17.4239 14.168ZM17.9839 12.572C18.2173 12.572 18.4273 12.5393 18.6139 12.474C18.8006 12.3993 18.9639 12.2967 19.1039 12.166C19.2439 12.026 19.3653 11.8533 19.4679 11.648V10.15C19.3933 9.94467 19.2813 9.772 19.1319 9.632C18.9826 9.48267 18.8053 9.37067 18.5999 9.296C18.3946 9.212 18.1659 9.17 17.9139 9.17C17.6339 9.17 17.3726 9.24467 17.1299 9.394C16.8966 9.534 16.7099 9.73 16.5699 9.982C16.4299 10.234 16.3599 10.5233 16.3599 10.85C16.3599 11.1767 16.4346 11.4707 16.5839 11.732C16.7333 11.9933 16.9293 12.1987 17.1719 12.348C17.4239 12.4973 17.6946 12.572 17.9839 12.572ZM25.9115 7.882L26.0935 9.562L26.0515 9.31C26.2289 8.946 26.4715 8.638 26.7795 8.386C27.0875 8.12467 27.3909 7.924 27.6895 7.784C27.9975 7.644 28.2309 7.574 28.3895 7.574L28.2915 9.534C27.8342 9.478 27.4422 9.55267 27.1155 9.758C26.7889 9.96333 26.5369 10.234 26.3595 10.57C26.1822 10.906 26.0935 11.2513 26.0935 11.606V14H24.1475V7.882H25.9115ZM34.6077 14.168C34.0944 14.168 33.6604 14.084 33.3057 13.916C32.9604 13.7387 32.6571 13.51 32.3957 13.23L32.5497 12.81V14H30.5897V2.954H32.5357V8.932V8.302C32.7784 8.09667 33.1004 7.924 33.5017 7.784C33.9031 7.644 34.3604 7.574 34.8737 7.574C35.4057 7.574 35.8911 7.7 36.3297 7.952C36.7684 8.204 37.1184 8.57267 37.3797 9.058C37.6504 9.534 37.7857 10.1173 37.7857 10.808C37.7857 11.4987 37.6364 12.096 37.3377 12.6C37.0484 13.104 36.6611 13.4913 36.1757 13.762C35.6904 14.0327 35.1677 14.168 34.6077 14.168ZM34.1737 12.516C34.4631 12.516 34.7291 12.4413 34.9717 12.292C35.2237 12.1427 35.4244 11.9373 35.5737 11.676C35.7231 11.4147 35.7977 11.1207 35.7977 10.794C35.7977 10.4673 35.7231 10.178 35.5737 9.926C35.4244 9.674 35.2237 9.478 34.9717 9.338C34.7291 9.18867 34.4631 9.114 34.1737 9.114C33.9217 9.114 33.6837 9.156 33.4597 9.24C33.2451 9.31467 33.0584 9.42667 32.8997 9.576C32.7504 9.716 32.6337 9.88867 32.5497 10.094V11.592C32.6617 11.7973 32.7924 11.97 32.9417 12.11C33.1004 12.2407 33.2824 12.3433 33.4877 12.418C33.6931 12.4833 33.9217 12.516 34.1737 12.516ZM43.0361 14.168C42.2894 14.168 41.6547 14.028 41.1321 13.748C40.6187 13.468 40.2267 13.0807 39.9561 12.586C39.6854 12.0913 39.5501 11.522 39.5501 10.878C39.5501 10.262 39.7087 9.70667 40.0261 9.212C40.3434 8.71733 40.7681 8.32533 41.3001 8.036C41.8321 7.73733 42.4247 7.588 43.0781 7.588C43.9554 7.588 44.6741 7.84467 45.2341 8.358C45.8034 8.862 46.1721 9.59467 46.3401 10.556L41.5801 12.068L41.1461 11.004L44.5901 9.842L44.1841 10.024C44.1094 9.78133 43.9741 9.57133 43.7781 9.394C43.5914 9.20733 43.3067 9.114 42.9241 9.114C42.6347 9.114 42.3781 9.184 42.1541 9.324C41.9394 9.45467 41.7714 9.646 41.6501 9.898C41.5381 10.1407 41.4821 10.43 41.4821 10.766C41.4821 11.1487 41.5521 11.4707 41.6921 11.732C41.8321 11.984 42.0234 12.1753 42.2661 12.306C42.5087 12.4367 42.7794 12.502 43.0781 12.502C43.2927 12.502 43.4981 12.4647 43.6941 12.39C43.8994 12.3153 44.1001 12.2173 44.2961 12.096L45.1641 13.552C44.8374 13.7387 44.4827 13.888 44.1001 14C43.7267 14.112 43.3721 14.168 43.0361 14.168ZM51.0403 14.168C50.471 14.168 49.953 14.056 49.4863 13.832C49.029 13.5987 48.665 13.244 48.3943 12.768C48.1237 12.292 47.9883 11.6853 47.9883 10.948C47.9883 10.2573 48.1283 9.66 48.4083 9.156C48.6883 8.652 49.057 8.26467 49.5143 7.994C49.9717 7.714 50.457 7.574 50.9703 7.574C51.577 7.574 52.0343 7.67667 52.3423 7.882C52.6597 8.078 52.921 8.29733 53.1263 8.54L53.0423 8.778L53.2243 7.882H55.0443V14H53.0843V12.67L53.2383 13.09C53.2197 13.09 53.1637 13.146 53.0703 13.258C52.977 13.3607 52.837 13.4867 52.6503 13.636C52.473 13.776 52.249 13.8973 51.9783 14C51.717 14.112 51.4043 14.168 51.0403 14.168ZM51.6003 12.572C51.8337 12.572 52.0437 12.5393 52.2303 12.474C52.417 12.3993 52.5803 12.2967 52.7203 12.166C52.8603 12.026 52.9817 11.8533 53.0843 11.648V10.15C53.0097 9.94467 52.8977 9.772 52.7483 9.632C52.599 9.48267 52.4217 9.37067 52.2163 9.296C52.011 9.212 51.7823 9.17 51.5303 9.17C51.2503 9.17 50.989 9.24467 50.7463 9.394C50.513 9.534 50.3263 9.73 50.1863 9.982C50.0463 10.234 49.9763 10.5233 49.9763 10.85C49.9763 11.1767 50.051 11.4707 50.2003 11.732C50.3497 11.9933 50.5457 12.1987 50.7883 12.348C51.0403 12.4973 51.311 12.572 51.6003 12.572ZM59.5279 7.882L59.7099 9.562L59.6679 9.31C59.8453 8.946 60.0879 8.638 60.3959 8.386C60.7039 8.12467 61.0073 7.924 61.3059 7.784C61.6139 7.644 61.8473 7.574 62.0059 7.574L61.9079 9.534C61.4506 9.478 61.0586 9.55267 60.7319 9.758C60.4053 9.96333 60.1533 10.234 59.9759 10.57C59.7986 10.906 59.7099 11.2513 59.7099 11.606V14H57.7639V7.882H59.5279ZM64.2061 7.882H66.1661V14H64.2061V7.882ZM64.1641 5.712C64.1641 5.42267 64.2761 5.18467 64.5001 4.998C64.7335 4.81133 64.9808 4.718 65.2421 4.718C65.5035 4.718 65.7415 4.81133 65.9561 4.998C66.1801 5.18467 66.2921 5.42267 66.2921 5.712C66.2921 6.00133 66.1801 6.23933 65.9561 6.426C65.7415 6.60333 65.5035 6.692 65.2421 6.692C64.9808 6.692 64.7335 6.60333 64.5001 6.426C64.2761 6.23933 64.1641 6.00133 64.1641 5.712ZM71.4606 14.168C70.8913 14.168 70.3733 14.056 69.9066 13.832C69.4493 13.5987 69.0853 13.244 68.8146 12.768C68.544 12.292 68.4086 11.6853 68.4086 10.948C68.4086 10.2573 68.5486 9.66 68.8286 9.156C69.1086 8.652 69.4773 8.26467 69.9346 7.994C70.392 7.714 70.8773 7.574 71.3906 7.574C71.9973 7.574 72.4546 7.67667 72.7626 7.882C73.08 8.078 73.3413 8.29733 73.5466 8.54L73.4626 8.778L73.6446 7.882H75.4646V14H73.5046V12.67L73.6586 13.09C73.64 13.09 73.584 13.146 73.4906 13.258C73.3973 13.3607 73.2573 13.4867 73.0706 13.636C72.8933 13.776 72.6693 13.8973 72.3986 14C72.1373 14.112 71.8246 14.168 71.4606 14.168ZM72.0206 12.572C72.254 12.572 72.464 12.5393 72.6506 12.474C72.8373 12.3993 73.0006 12.2967 73.1406 12.166C73.2806 12.026 73.402 11.8533 73.5046 11.648V10.15C73.43 9.94467 73.318 9.772 73.1686 9.632C73.0193 9.48267 72.842 9.37067 72.6366 9.296C72.4313 9.212 72.2026 9.17 71.9506 9.17C71.6706 9.17 71.4093 9.24467 71.1666 9.394C70.9333 9.534 70.7466 9.73 70.6066 9.982C70.4666 10.234 70.3966 10.5233 70.3966 10.85C70.3966 11.1767 70.4713 11.4707 70.6206 11.732C70.77 11.9933 70.966 12.1987 71.2086 12.348C71.4606 12.4973 71.7313 12.572 72.0206 12.572Z" fill="black"/>
<path d="M49.009 25.83C49.009 26.726 48.8316 27.4913 48.477 28.126C48.1223 28.7607 47.6276 29.246 46.993 29.582C46.3676 29.9273 45.6396 30.114 44.809 30.142V28.168C45.4436 28.1307 45.9616 27.9347 46.363 27.58C46.7643 27.2253 46.965 26.628 46.965 25.788V17.696H49.009V25.83ZM51.5764 24.864C51.5764 24.2387 51.7211 23.6787 52.0104 23.184C52.3091 22.6893 52.7244 22.302 53.2564 22.022C53.7884 21.7327 54.3998 21.588 55.0904 21.588C55.7904 21.588 56.3971 21.7327 56.9104 22.022C57.4238 22.302 57.8158 22.6893 58.0864 23.184C58.3664 23.6787 58.5064 24.2387 58.5064 24.864C58.5064 25.4893 58.3664 26.054 58.0864 26.558C57.8158 27.0527 57.4238 27.4447 56.9104 27.734C56.3971 28.0233 55.7811 28.168 55.0624 28.168C54.3904 28.168 53.7884 28.0373 53.2564 27.776C52.7338 27.5147 52.3231 27.1367 52.0244 26.642C51.7258 26.1473 51.5764 25.5547 51.5764 24.864ZM53.5504 24.878C53.5504 25.1953 53.6158 25.4847 53.7464 25.746C53.8771 25.998 54.0544 26.1987 54.2784 26.348C54.5024 26.4973 54.7544 26.572 55.0344 26.572C55.3424 26.572 55.6084 26.4973 55.8324 26.348C56.0564 26.1987 56.2291 25.998 56.3504 25.746C56.4718 25.4847 56.5324 25.1953 56.5324 24.878C56.5324 24.5513 56.4718 24.262 56.3504 24.01C56.2291 23.758 56.0564 23.5573 55.8324 23.408C55.6084 23.2587 55.3424 23.184 55.0344 23.184C54.7544 23.184 54.5024 23.2587 54.2784 23.408C54.0544 23.5573 53.8771 23.758 53.7464 24.01C53.6158 24.262 53.5504 24.5513 53.5504 24.878ZM62.7385 28.126C62.2345 28.126 61.7631 28.0373 61.3245 27.86C60.8951 27.6827 60.5311 27.4353 60.2325 27.118L61.0445 26.04C61.3431 26.3107 61.6185 26.5067 61.8705 26.628C62.1318 26.74 62.3651 26.796 62.5705 26.796C62.7291 26.796 62.8691 26.782 62.9905 26.754C63.1211 26.7167 63.2238 26.6653 63.2985 26.6C63.3731 26.5253 63.4105 26.432 63.4105 26.32C63.4105 26.1613 63.3451 26.0353 63.2145 25.942C63.0931 25.8487 62.9345 25.774 62.7385 25.718C62.5425 25.6527 62.3325 25.5873 62.1085 25.522C61.5485 25.3447 61.1425 25.088 60.8905 24.752C60.6478 24.4067 60.5265 24.0333 60.5265 23.632C60.5265 23.324 60.6058 23.016 60.7645 22.708C60.9325 22.3907 61.1938 22.1293 61.5485 21.924C61.9125 21.7093 62.3791 21.602 62.9485 21.602C63.4618 21.602 63.8958 21.6533 64.2505 21.756C64.6051 21.8587 64.9411 22.0267 65.2585 22.26L64.5165 23.408C64.3391 23.268 64.1385 23.1513 63.9145 23.058C63.6998 22.9553 63.4991 22.8993 63.3125 22.89C63.1445 22.8807 62.9998 22.8993 62.8785 22.946C62.7665 22.9927 62.6778 23.0533 62.6125 23.128C62.5471 23.2027 62.5145 23.282 62.5145 23.366C62.5051 23.5433 62.5705 23.6833 62.7105 23.786C62.8598 23.8887 63.0465 23.968 63.2705 24.024C63.4945 24.08 63.7138 24.1453 63.9285 24.22C64.2271 24.3133 64.4838 24.4393 64.6985 24.598C64.9131 24.7567 65.0765 24.948 65.1885 25.172C65.3098 25.3867 65.3705 25.648 65.3705 25.956C65.3705 26.3293 65.2725 26.684 65.0765 27.02C64.8898 27.3467 64.6005 27.6127 64.2085 27.818C63.8258 28.0233 63.3358 28.126 62.7385 28.126ZM67.7122 28V16.954H69.6302V23.114L69.6162 22.876C69.8309 22.4933 70.1342 22.1853 70.5262 21.952C70.9182 21.7093 71.3989 21.588 71.9682 21.588C72.5469 21.588 73.0275 21.7607 73.4102 22.106C73.8022 22.442 74.0029 22.8807 74.0122 23.422V28H72.0522V24.15C72.0429 23.8793 71.9682 23.6647 71.8282 23.506C71.6975 23.338 71.4735 23.254 71.1562 23.254C70.8575 23.254 70.5962 23.352 70.3722 23.548C70.1482 23.744 69.9755 24.01 69.8542 24.346C69.7329 24.682 69.6722 25.0693 69.6722 25.508V28H67.7122ZM78.6987 28.294C78.148 28.294 77.686 28.126 77.3127 27.79C76.9393 27.4447 76.7433 27.0013 76.7247 26.46V21.882H78.6847V25.732C78.7033 26.0027 78.7733 26.222 78.8947 26.39C79.016 26.5487 79.2213 26.628 79.5107 26.628C79.8 26.628 80.0473 26.53 80.2527 26.334C80.4673 26.138 80.6307 25.872 80.7427 25.536C80.864 25.1907 80.9247 24.8033 80.9247 24.374V21.882H82.8847V28H81.1067L80.9527 26.88L80.9807 27.006C80.8407 27.258 80.6633 27.482 80.4487 27.678C80.234 27.874 79.9773 28.0233 79.6787 28.126C79.3893 28.238 79.0627 28.294 78.6987 28.294ZM88.1765 28.168C87.6071 28.168 87.0891 28.056 86.6225 27.832C86.1651 27.5987 85.8011 27.244 85.5305 26.768C85.2598 26.292 85.1245 25.6853 85.1245 24.948C85.1245 24.2573 85.2645 23.66 85.5445 23.156C85.8245 22.652 86.1931 22.2647 86.6505 21.994C87.1078 21.714 87.5931 21.574 88.1065 21.574C88.7131 21.574 89.1705 21.6767 89.4785 21.882C89.7958 22.078 90.0571 22.2973 90.2625 22.54L90.1785 22.778L90.3605 21.882H92.1805V28H90.2205V26.67L90.3745 27.09C90.3558 27.09 90.2998 27.146 90.2065 27.258C90.1131 27.3607 89.9731 27.4867 89.7865 27.636C89.6091 27.776 89.3851 27.8973 89.1145 28C88.8531 28.112 88.5405 28.168 88.1765 28.168ZM88.7365 26.572C88.9698 26.572 89.1798 26.5393 89.3665 26.474C89.5531 26.3993 89.7165 26.2967 89.8565 26.166C89.9965 26.026 90.1178 25.8533 90.2205 25.648V24.15C90.1458 23.9447 90.0338 23.772 89.8845 23.632C89.7351 23.4827 89.5578 23.3707 89.3525 23.296C89.1471 23.212 88.9185 23.17 88.6665 23.17C88.3865 23.17 88.1251 23.2447 87.8825 23.394C87.6491 23.534 87.4625 23.73 87.3225 23.982C87.1825 24.234 87.1125 24.5233 87.1125 24.85C87.1125 25.1767 87.1871 25.4707 87.3365 25.732C87.4858 25.9933 87.6818 26.1987 87.9245 26.348C88.1765 26.4973 88.4471 26.572 88.7365 26.572Z" fill="black"/>
</svg>
